<?xml version="1.0" encoding="UTF-8"?>
<svg xmlns="http://www.w3.org/2000/svg" version="1.1" xmlns:xlink="http://www.w3.org/1999/xlink" viewBox="0 0 90.7 82">
  <defs>
    <style>
      .cls-1 {
        isolation: isolate;
      }

      .cls-2 {
        fill: url(#Dégradé_sans_nom_15);
      }

      .cls-2, .cls-3, .cls-4, .cls-5, .cls-6, .cls-7, .cls-8, .cls-9 {
        stroke-width: 0px;
      }

      .cls-3 {
        fill: none;
      }

      .cls-4 {
        fill: #008244;
      }

      .cls-5 {
        fill: #ededed;
        mix-blend-mode: multiply;
      }

      .cls-10 {
        clip-path: url(#clippath);
      }

      .cls-6 {
        fill: url(#Dégradé_sans_nom_10);
      }

      .cls-7 {
        fill: #484443;
      }

      .cls-8 {
        fill: #00a8be;
      }

      .cls-9 {
        fill: #fff;
      }
    </style>
    <clipPath id="clippath">
      <path class="cls-3" d="M41,0h49.7v82h-49.7C18.4,82,0,63.6,0,41H0C0,18.4,18.4,0,41,0Z"/>
    </clipPath>
    <linearGradient id="Dégradé_sans_nom_15" data-name="Dégradé sans nom 15" x1="5.6" y1="-2.6" x2="70.4" y2="50.8" gradientUnits="userSpaceOnUse">
      <stop offset="0" stop-color="#fff"/>
      <stop offset="1" stop-color="#e0d8d6"/>
    </linearGradient>
    <linearGradient id="Dégradé_sans_nom_10" data-name="Dégradé sans nom 10" x1="31.9" y1="56.4" x2="35.3" y2="51.1" gradientTransform="translate(-20.2 -14.7) rotate(-7)" gradientUnits="userSpaceOnUse">
      <stop offset="0" stop-color="#383837"/>
      <stop offset="1" stop-color="#000"/>
    </linearGradient>
  </defs>
  <g class="cls-1">
    <g id="Calque_1" data-name="Calque 1">
      <g class="cls-10">
        <path class="cls-2" d="M41,0h49.7v82h-49.7C18.4,82,0,63.6,0,41H0C0,18.4,18.4,0,41,0Z"/>
        <g>
          <path class="cls-5" d="M22.6,34l18.2,25,25-23-26.6,8.8-10.9-11.4s-4.7-2.7-5.7.6Z"/>
          <path class="cls-7" d="M33,8c-3.2,1.1-6.2,2.7-8.9,4.7l3.2,4.4c1.9,2.6,5.3,3.5,8.3,2.3s.9-.4,1.3-.5c12.6-4.5,26.6,2.3,30.7,15.3,3.7,11.8-2.3,24.5-13.8,29.1-12.6,5-26.7-1.4-31.2-14s-1.2-4.2-1.3-6.4v-1.1c-.3-2.3-.7-11.9,6.7-7.3l-3.4-10.6-11.8,4.5-2.5,4.7s-1.1,5.1-.6,9.5c.1,3.6.8,7.1,2,10.6,7.5,21,33.1,30.5,53,17.4,9.7-6.3,16.6-21.1,15.4-32.6C77.6,14.2,54,.5,33,8Z"/>
          <path class="cls-6" d="M22.6,34c.9-.8,2.2-1.1,4.3-.2l2.8.8.8-1.2-6.7-7.4-7.1.3s-6.7,2.4-6.7,8.5c0,0,4.4-8.3,12.6-.9Z"/>
          <path class="cls-8" d="M51.1,34.3l-6.1,5.4-5.8-8.4s-8.6-12.8-18.3-9.6c-9.7,3.2-10.8,12.2-10.8,12.2,5.6-14.5,17.5,1,17.5,1l15.4,22.1,23.7-21.5h0c-3.9-4.7-10.9-5.2-15.4-1.2Z"/>
          <g>
            <path class="cls-9" d="M13.4,41.3l3.8-.2v1.1c0,.4,0,.7,0,.9,0,.2,0,.3-.2.4,0,.1-.2.3-.4.3-.2,0-.3.1-.5.1-.3,0-.5,0-.7-.2s-.3-.3-.4-.6l-1.5,1.1v-1.2c0,0,1.4-.9,1.4-.9h-1.5c0,0,0-.9,0-.9ZM15.4,42.1v.2c0,.2,0,.4.1.5,0,0,.2.1.4.1.2,0,.3,0,.4-.2,0,0,.1-.3,0-.5v-.2s-1,0-1,0Z"/>
            <path class="cls-9" d="M13.6,44.9l3.7-.6.4,2.3h-.8c0,.1-.2-1.2-.2-1.2h-.6c0,.1.2,1.3.2,1.3h-.8c0,.1-.2-1.1-.2-1.1h-.6c0,0,.2,1.4.2,1.4h-.8c0,.1-.4-2.1-.4-2.1Z"/>
            <path class="cls-9" d="M18.4,49.8l-1.1.3c.1-.2.2-.3.2-.5s0-.3,0-.5c0-.3-.2-.5-.5-.6-.2-.1-.5-.1-.8,0-.3,0-.5.2-.7.5-.1.2-.2.5-.1.8,0,.2.1.3.2.4.1.1.3.2.4.3l-1.1.3c-.1-.1-.2-.3-.3-.4,0-.1-.1-.3-.2-.5,0-.2,0-.4,0-.6,0-.2,0-.4,0-.5.1-.3.3-.6.5-.8.2-.2.5-.4.9-.5.3,0,.5,0,.8,0,.3,0,.5.1.7.2.2.1.4.3.6.5.1.2.3.4.3.7,0,.2,0,.3,0,.5,0,.2,0,.3,0,.5Z"/>
            <path class="cls-9" d="M18.3,54.4c-.3.1-.5.2-.8.2-.3,0-.5,0-.8-.2-.2-.1-.5-.3-.6-.4-.2-.2-.3-.4-.4-.7-.1-.2-.2-.5-.2-.8,0-.3,0-.5.1-.8,0-.3.2-.5.4-.7.2-.2.4-.3.6-.4.2-.1.5-.2.8-.2.3,0,.5,0,.8.2.2.1.5.2.6.4.2.2.3.4.4.7.1.2.2.5.2.8,0,.3,0,.5-.1.8,0,.2-.2.5-.4.6-.2.2-.4.3-.6.4ZM16.5,53c.1.3.3.4.6.5.3,0,.5,0,.8,0,.3-.1.5-.3.6-.6.1-.3.1-.5,0-.8-.1-.3-.3-.4-.6-.5-.3,0-.5,0-.8,0-.3.1-.5.3-.6.6-.1.2-.1.5,0,.8Z"/>
            <path class="cls-9" d="M17.1,56l3.2-2,.5.8-.9,2.2s0,.1-.1.2c0,.1-.2.2-.3.4.1,0,.2-.2.3-.3,0,0,.2-.1.3-.2l1.6-1,.5.8-3.2,2-.5-.8.9-2.2s0-.1.1-.2c0-.1.2-.2.3-.4-.1,0-.2.2-.3.3,0,0-.2.1-.3.2l-1.6,1-.5-.8Z"/>
            <path class="cls-9" d="M19.7,60l2.9-2.4.5.6c.4.5.6.8.7,1,.1.2.2.4.2.7,0,.3,0,.6-.1.8-.1.3-.3.5-.6.7-.3.2-.5.4-.8.4-.3,0-.6,0-.8,0-.2,0-.4-.2-.6-.3-.2-.1-.4-.4-.8-.8h-.1c0-.1-.5-.7-.5-.7ZM20.9,60.3h.1c.3.4.5.6.8.7.2,0,.5,0,.8-.3.3-.2.4-.5.4-.7,0-.3-.1-.5-.4-.8h-.1c0-.1-1.6,1.2-1.6,1.2Z"/>
            <path class="cls-9" d="M22.5,63.3l2.6-2.7.7.7-2.6,2.7-.7-.7Z"/>
            <path class="cls-9" d="M24.3,65l1.9-2.2-.6-.5.6-.7,2.1,1.7-.6.7-.6-.5-1.9,2.2-.8-.7Z"/>
            <path class="cls-9" d="M26.4,66.7l2.2-3.1.8.6-2.2,3.1-.8-.6Z"/>
            <path class="cls-9" d="M32.4,68.2c-.1.2-.3.4-.5.6-.2.2-.4.3-.7.3-.3,0-.5,0-.8,0-.3,0-.5-.1-.7-.2-.2-.1-.4-.3-.6-.5-.2-.2-.3-.4-.4-.7,0-.3-.1-.5,0-.8,0-.3.1-.5.2-.7.1-.2.3-.4.5-.6.2-.2.4-.3.7-.3.3,0,.5,0,.8,0,.3,0,.5.1.7.2.2.1.4.3.6.5.2.2.3.4.4.7s0,.5,0,.8c0,.3-.1.5-.2.7ZM30.1,68.1c.2.1.5.2.8,0,.3,0,.5-.3.6-.6.2-.3.2-.6.1-.8,0-.3-.2-.5-.5-.6-.2-.1-.5-.2-.8,0-.3,0-.5.3-.6.6-.2.3-.2.6-.1.8s.2.5.5.6Z"/>
            <path class="cls-9" d="M32.3,70.2l1.3-3.5.9.3.6,2.3s0,.1,0,.3c0,.1,0,.3,0,.5,0-.2,0-.3.1-.4,0-.1,0-.2.1-.3l.7-1.7.9.3-1.3,3.5-.9-.3-.6-2.3s0-.1,0-.3c0-.1,0-.3,0-.5,0,.2,0,.3-.1.4s0,.2-.1.3l-.7,1.7-.9-.3Z"/>
            <path class="cls-9" d="M36.9,71.8l.8-3.7,1,.2,1,2.2s0,.1,0,.3c0,.1,0,.3.1.5,0-.2,0-.3,0-.4,0-.1,0-.2,0-.3l.4-1.8,1,.2-.8,3.7-1-.2-1-2.2s0-.1,0-.3c0-.1,0-.3-.1-.5,0,.2,0,.3,0,.4,0,.1,0,.2,0,.3l-.4,1.8-1-.2Z"/>
            <path class="cls-9" d="M41.6,72.7l.3-3.8,2.3.2v.8c0,0-1.4-.1-1.4-.1v.7c0,0,1.2,0,1.2,0v.8c0,0-1.3,0-1.3,0v.6c0,0,1.3.1,1.3.1v.8c0,0-2.4-.2-2.4-.2Z"/>
            <path class="cls-9" d="M49.2,72.7h-1s-.3-1.6-.3-1.6c0-.1,0-.2,0-.4,0-.1,0-.3,0-.5,0,.2,0,.4-.1.6,0,0,0,0,0,.1l-.4,1.8h-.7s-.6-1.7-.6-1.7c0,0,0,0,0-.1,0-.2-.1-.4-.2-.6,0,.1,0,.3,0,.4,0,.1,0,.3,0,.4v1.6c-.1,0-1.1,0-1.1,0l.4-3.8h1s.7,1.9.7,1.9c0,0,0,0,0,0,0,.2.1.3.1.4,0,0,0-.1,0-.2,0,0,0-.2,0-.3l.5-2h1s.8,3.7.8,3.7Z"/>
            <path class="cls-9" d="M50,72.5l-.7-3.7,2.3-.4v.8c.1,0-1.1.2-1.1.2v.6c.1,0,1.3-.2,1.3-.2v.8c.1,0-1.1.2-1.1.2v.6c.1,0,1.4-.2,1.4-.2l.2.8-2.3.4Z"/>
            <path class="cls-9" d="M53.2,71.9l-1.1-3.6.9-.3,1.9,1.4s.1,0,.2.2c0,0,.2.2.3.3,0-.1-.1-.3-.2-.4,0-.1,0-.2-.1-.3l-.6-1.8.9-.3,1.1,3.6-.9.3-1.9-1.4s-.1,0-.2-.2c0,0-.2-.2-.3-.3,0,.1.1.3.2.4,0,.1,0,.2.1.3l.6,1.8-.9.3Z"/>
            <path class="cls-9" d="M58.2,70.2l-1.2-2.6-.8.4-.4-.8,2.5-1.1.4.8-.8.4,1.2,2.6-.9.4Z"/>
            <path class="cls-9" d="M62.1,68.1l-2.1-3.1.6-.4c.5-.3.8-.5,1.1-.6.2,0,.5-.1.7-.1.3,0,.6,0,.8.2.2.1.5.4.7.6.2.3.3.6.4.8,0,.3,0,.6,0,.8,0,.2-.2.4-.4.6-.2.2-.4.4-.8.7h-.1c0,0-.6.5-.6.5ZM62.5,66.9h.1c.3-.3.5-.6.6-.8s0-.5-.2-.8c-.2-.3-.4-.5-.7-.5-.2,0-.5,0-.9.3h-.1c0,0,1.2,1.8,1.2,1.8Z"/>
            <path class="cls-9" d="M65.6,65.6l-2.5-2.8,1.7-1.5.5.6-1,.9.4.5.9-.8.5.6-.9.8.4.5,1-.9.6.6-1.7,1.5Z"/>
            <path class="cls-9" d="M72,59.3l-.5.7h-.7c0,.1,0,.2-.1.4,0,.1-.1.2-.2.4-.1.2-.3.3-.4.4-.2.1-.3.2-.5.3-.3.1-.6.1-.9,0-.3,0-.6-.2-.9-.4-.2-.2-.4-.4-.5-.6-.1-.2-.2-.5-.2-.7,0-.3,0-.5,0-.8,0-.3.2-.5.4-.7.2-.2.4-.4.6-.5.2-.1.5-.2.7-.2.3,0,.5,0,.8,0s.5.2.7.3c.2.2.4.4.5.6.1.2.2.5.2.7h1.1ZM69.6,59.3h.3c0,0,0-.2-.1-.3s-.1-.2-.2-.2c-.3-.2-.5-.3-.8-.3-.3,0-.5.1-.7.4-.2.2-.2.5-.2.7,0,.3.2.5.4.7.3.2.5.3.8.3s.5-.1.7-.4c0,0,0,0,0-.1,0,0,0,0,0-.1h-.9s.6-.7.6-.7Z"/>
            <path class="cls-9" d="M68.9,56.4l.5-.9,1.6.9c.2.1.4.2.5.3.1,0,.2,0,.3,0,.1,0,.2,0,.3,0,0,0,.2-.2.2-.3,0-.1.1-.2.1-.3,0-.1,0-.2,0-.3,0,0-.1-.1-.2-.2s-.3-.2-.5-.3h-.2c0-.1-1.4-.9-1.4-.9l.5-.9,1.7,1c.4.2.6.4.8.5.1.1.2.3.3.5,0,.2,0,.4,0,.6,0,.2-.1.5-.3.8-.2.3-.3.5-.5.7-.2.2-.4.3-.6.3-.2,0-.4,0-.6,0-.2,0-.5-.2-.8-.4l-.3-.2-1.4-.8Z"/>
            <path class="cls-9" d="M74.1,54.9l-3-2.6.5-1.2,4,.2-.4.9h-.7c0,0-.6,1.3-.6,1.3l.5.4-.4.9ZM73.3,53l.4-.9h-1.3c0-.1-.1-.1-.2-.1,0,0-.2,0-.3,0,0,0,.2.1.2.2,0,0,.1.1.2.2l1,.8Z"/>
            <path class="cls-9" d="M75.7,50.7l-3.6-1,.3-1,2.8.8.4-1.2.8.2-.6,2.2Z"/>
            <path class="cls-9" d="M76.5,47.8l-3.7-.7.2-1,3.7.7-.2,1Z"/>
            <path class="cls-9" d="M76.9,45.3l-2.9-.3v.8c0,0-1-.1-1-.1l.3-2.7h.9c0,.1,0,.9,0,.9l2.9.3v1Z"/>
            <path class="cls-9" d="M72.2,40.7l.9.8v.4s-.9-.5-.9-.5v-.7ZM77.2,42.7h-3.8c0,0,0-2.4,0-2.4h.8s0,1.3,0,1.3h.7s0-1.2,0-1.2h.8s0,1.2,0,1.2h.6s0-1.3,0-1.3h.8s0,2.3,0,2.3Z"/>
          </g>
          <g>
            <path class="cls-9" d="M32.2,16.1l-1.7-3.7,1-.5,1.3,2.9,1.3-.6.4.9-2.3,1Z"/>
            <path class="cls-9" d="M34.5,15.1v-4.3c0,0,1.4-.4,1.4-.4l2.6,3.5-1.1.3-.4-.6-1.5.5v.8s-1,.3-1,.3ZM35.5,13.1l1.1-.3-.8-1.2s0,0-.1-.2c0,0-.1-.2-.2-.3,0,.1,0,.2,0,.3,0,0,0,.2,0,.3v1.4Z"/>
            <path class="cls-9" d="M38.7,13.8l-.7-4,1.1-.2c.5,0,.8-.1,1-.1.2,0,.4,0,.5,0,.2,0,.3.1.4.3.1.1.2.3.2.5,0,.2,0,.4,0,.6,0,.2-.3.3-.5.4.3,0,.5,0,.7.2.2.2.3.4.4.7,0,.2,0,.4,0,.6s-.2.3-.3.4c-.1,0-.3.2-.5.2-.2,0-.5.1-1,.2l-1.1.2ZM39.3,11.2h.2c.3,0,.5-.1.5-.2,0,0,.1-.2,0-.3,0-.2,0-.3-.2-.3-.1,0-.3,0-.6,0h-.2s.1.9.1.9ZM39.6,12.8h.4c.3-.1.4-.2.5-.3,0,0,.1-.2.1-.4,0-.2-.1-.3-.2-.3-.1,0-.3,0-.6,0h-.4c0,0,.2,1,.2,1Z"/>
            <path class="cls-9" d="M42.5,13.2l-.2-4.1h2.5c0-.1,0,.8,0,.8h-1.4c0,0,0,.8,0,.8h1.3c0,0,0,.8,0,.8h-1.3c0,0,0,.8,0,.8h1.4c0,0,0,.8,0,.8h-2.5Z"/>
            <path class="cls-9" d="M45.6,13.1l.2-4.1h1.1c0,0-.2,3.2-.2,3.2h1.4c0,0,0,1,0,1h-2.5Z"/>
            <path class="cls-9" d="M50.3,13.5l.9-4,1.1.3c.4.1.8.2.9.3.2,0,.3.2.4.3.1.1.2.3.2.5,0,.2,0,.4,0,.6,0,.3-.2.5-.4.7-.2.2-.4.2-.8.2l.7,1.9-1.2-.3-.6-1.8-.4,1.6-1-.2ZM51.8,11.6h.2c.2.1.4,0,.5,0,.1,0,.2-.2.2-.3,0-.2,0-.4,0-.5,0-.1-.2-.2-.5-.2h-.2c0,0-.2,1-.2,1Z"/>
            <path class="cls-9" d="M53.7,14.3l1.4-3.9,2.4.8-.3.8-1.3-.5-.2.7,1.3.5-.3.8-1.3-.5-.2.7,1.3.5-.3.9-2.4-.8Z"/>
            <path class="cls-9" d="M61.1,13.2l-.5,1.1c0-.2-.1-.4-.2-.5-.1-.1-.2-.2-.4-.3-.3-.1-.6-.2-.8,0-.3.1-.5.3-.6.6-.1.3-.2.6,0,.9,0,.3.3.5.6.6.2,0,.3.1.5.1.2,0,.4,0,.6-.1l-.5,1.1c-.2,0-.4,0-.6,0-.2,0-.3,0-.5-.2-.2,0-.4-.2-.5-.3-.1-.1-.3-.3-.4-.4-.2-.3-.3-.7-.3-1,0-.4,0-.7.3-1.1.1-.3.3-.5.5-.7.2-.2.4-.3.7-.4.3,0,.5-.1.8-.1.3,0,.5,0,.8.2.2,0,.3.2.4.3.1.1.3.3.4.4Z"/>
            <path class="cls-9" d="M63,19.8l-.8-.5v-.7c-.2,0-.3,0-.4-.1-.1,0-.3-.1-.4-.2-.2-.1-.4-.3-.5-.5-.1-.2-.3-.4-.3-.6-.1-.3-.2-.7-.1-1,0-.4.2-.7.4-1,.2-.2.4-.4.6-.6.2-.2.5-.3.8-.3.3,0,.6,0,.8,0,.3,0,.5.2.8.3.2.2.4.4.6.6.2.2.3.5.3.8,0,.3,0,.6,0,.8,0,.3-.2.5-.3.8-.2.3-.4.5-.6.6-.2.2-.5.2-.8.3v1.2ZM62.9,17.1v.4c.1,0,.2-.1.3-.2,0,0,.2-.2.2-.3.2-.3.3-.6.3-.9,0-.3-.2-.5-.4-.7-.3-.2-.5-.2-.8-.1-.3,0-.5.3-.7.5-.2.3-.3.6-.2.9,0,.3.2.5.4.7,0,0,0,0,.1,0,0,0,0,0,.1,0v-.9c0,0,.7.5.7.5Z"/>
          </g>
          <path class="cls-4" d="M84.3,74.7"/>
        </g>
      </g>
    </g>
  </g>
</svg>