<?xml version="1.0" standalone="no"?>
<!DOCTYPE svg PUBLIC "-//W3C//DTD SVG 20010904//EN"
 "http://www.w3.org/TR/2001/REC-SVG-20010904/DTD/svg10.dtd">
<svg version="1.0" xmlns="http://www.w3.org/2000/svg"
 width="155.000000pt" height="109.000000pt" viewBox="0 0 155.000000 109.000000"
 preserveAspectRatio="xMidYMid meet">

<g transform="translate(0.000000,109.000000) scale(0.100000,-0.100000)"
fill="#e30613" stroke="none">
<path d="M338 1070 c-206 -10 -243 -29 -289 -150 -49 -129 -48 -622 1 -754 24
-63 63 -105 117 -124 63 -23 586 -37 912 -24 292 11 328 17 378 64 56 53 83
202 83 463 0 261 -27 411 -83 462 -50 46 -81 54 -270 63 -206 11 -629 10 -849
0z m624 -469 c37 -20 68 -38 68 -41 0 -7 -395 -210 -409 -210 -12 0 -17 411
-4 423 5 6 103 -43 345 -172z"/>
</g>
</svg>
