<?xml version="1.0" standalone="no"?>
<!DOCTYPE svg PUBLIC "-//W3C//DTD SVG 20010904//EN"
 "http://www.w3.org/TR/2001/REC-SVG-20010904/DTD/svg10.dtd">
<svg version="1.0" xmlns="http://www.w3.org/2000/svg"
 width="225.000000pt" height="225.000000pt" viewBox="0 0 225.000000 225.000000"
 preserveAspectRatio="xMidYMid meet">

<g transform="translate(0.000000,225.000000) scale(0.100000,-0.100000)"
fill="#e30613" stroke="none">
<path d="M215 2231 c-86 -22 -151 -78 -186 -159 -18 -42 -19 -88 -19 -950 l0
-907 24 -50 c26 -56 80 -109 140 -136 39 -18 87 -19 946 -18 721 0 912 3 942
13 62 22 115 72 148 139 l30 62 -2 910 -3 910 -22 40 c-25 47 -84 105 -133
131 -33 18 -78 19 -935 21 -495 0 -913 -2 -930 -6z m450 -396 c110 -83 96
-253 -25 -315 -49 -25 -103 -25 -156 -1 -96 44 -134 164 -80 255 15 26 45 56
69 71 36 22 50 25 100 21 42 -3 67 -11 92 -31z m1005 -465 c100 -51 150 -113
184 -229 13 -46 16 -114 16 -408 l0 -353 -153 0 -154 0 -7 311 c-6 285 -8 314
-27 351 -52 102 -217 101 -285 -2 l-26 -38 -5 -311 -6 -311 -149 0 -148 0 0
495 0 495 150 0 150 0 0 -57 0 -57 38 35 c94 89 149 110 277 106 80 -3 109 -8
145 -27z m-950 -495 l0 -496 -157 3 -158 3 -3 493 -2 492 160 0 160 0 0 -495z"/>
</g>
</svg>
